<?xml version="1.0" encoding="UTF-8"?>
<svg id="Layer_1" xmlns="http://www.w3.org/2000/svg" version="1.1" viewBox="0 0 815.61 681.19">
  <!-- Generator: Adobe Illustrator 29.5.1, SVG Export Plug-In . SVG Version: 2.1.0 Build 141)  -->
  <defs>
    <style>
      .st0 {
        fill: #fdbe57;
      }
    </style>
  </defs>
  <path class="st0" d="M489.91,78.16l12.66-14.91,31.63,12.29-35.14-28.76-19.03,22.67c-36.84-31-72.22-45.01-72.22-45.01,0,0-35.38,14.01-72.22,45.01l-19.03-22.67-35.14,28.76,31.63-12.29,12.66,14.91c-36.73,33.96-71.9,85.07-71.9,156.28,0,138,154,212,154,212,0,0,154-74,154-212,0-71.21-35.17-122.32-71.9-156.28ZM525.59,206.59l-43.22,39.58-40.72-1.97c0-.08,0-.17,0-.25.02-.47.04-.95.05-1.42,0-.62.02-1.23.02-1.85,0-.67-.01-1.34-.03-2-.01-.55-.03-1.11-.06-1.66-.03-.64-.07-1.27-.12-1.9-.03-.57-.08-1.13-.14-1.69-.05-.56-.11-1.13-.18-1.69-.08-.7-.18-1.39-.28-2.08-.07-.49-.15-.97-.24-1.45-.09-.56-.2-1.12-.3-1.67-.01-.03-.01-.07-.03-.1-.1-.54-.21-1.07-.33-1.6-.24-1.11-.52-2.2-.81-3.27-.15-.54-.3-1.07-.46-1.6-.01-.02-.01-.05-.02-.07-.15-.5-.31-1-.48-1.49-.17-.52-.34-1.03-.53-1.54-.18-.52-.37-1.02-.57-1.53-.19-.49-.39-.97-.59-1.45h35.27l34.83-52.54c8.45,13.56,15.2,28.66,18.93,45.24ZM498.02,148.74l-33,51.75h-36.67c-1.38-1.57-2.84-2.98-4.38-4.22-.24-.2-.48-.39-.72-.57-.24-.19-.49-.37-.74-.55-.25-.18-.5-.35-.75-.52-.66-.45-1.34-.86-2.02-1.25-.23-.12-.45-.25-.68-.36-.23-.12-.46-.24-.69-.35-.9-.44-1.82-.83-2.76-1.16v-11.07h1.2c34,0,34-10,34-27,0-5.38-4.3-11.45-10.18-17.24l21.3-25.09c12.37,10.38,25.1,22.95,36.09,37.63ZM407.81,75.44s20.16,9.42,44.02,27.61l-20.83,24.81c-11.28-8.77-23.19-15.42-23.19-15.42,0,0-11.91,6.65-23.19,15.42l-20.83-24.81c23.86-18.19,44.02-27.61,44.02-27.61ZM353.69,111.11l21.3,25.09c-5.88,5.79-10.18,11.86-10.18,17.24,0,17,0,27,34,27h1.2v11.07c-.94.33-1.86.72-2.76,1.16-.23.11-.46.23-.69.35-.23.11-.45.24-.68.36-.69.39-1.36.81-2.02,1.25-.25.17-.5.34-.75.52-.25.18-.5.36-.74.55-.24.18-.48.37-.72.57-1.54,1.24-3.01,2.65-4.38,4.22h-36.67l-33-51.75c10.99-14.68,23.72-27.25,36.09-37.63ZM308.96,161.35l34.83,52.54h35.27c-.2.48-.4.96-.59,1.45-.2.5-.39,1.01-.57,1.53-.19.51-.36,1.02-.53,1.54-.17.49-.33.99-.48,1.49-.01.02-.02.05-.02.07-.16.53-.31,1.06-.46,1.6-.29,1.07-.57,2.16-.81,3.27-.12.53-.23,1.06-.33,1.6-.02.03-.02.06-.03.1-.1.55-.21,1.11-.3,1.67-.09.48-.17.96-.24,1.45-.1.69-.2,1.38-.28,2.08-.07.56-.13,1.13-.18,1.69-.06.56-.11,1.12-.14,1.69-.05.63-.09,1.26-.12,1.9-.03.55-.05,1.11-.06,1.66-.02.66-.03,1.33-.03,2,0,.62.01,1.24.02,1.85.01.47.03.95.05,1.42,0,.09,0,.17,0,.25l-40.72,1.97-43.22-39.58c3.73-16.58,10.48-31.68,18.93-45.24ZM286.81,235.44c0-4.08.19-8.09.55-12.03l42.16,36.16,46.04-3.24c.17.79.36,1.57.55,2.34.19.72.38,1.44.59,2.15.02.09.05.18.08.27.21.7.43,1.4.66,2.09.22.66.45,1.3.69,1.94.04.13.09.26.15.39.24.66.5,1.31.77,1.94.2.49.42.98.64,1.46.15.34.3.68.46,1,.24.51.48,1,.74,1.49.26.52.53,1.02.81,1.51.15.28.31.55.47.82.17.3.35.61.54.91.18.3.36.59.55.88.19.3.38.58.57.87.19.29.38.57.58.85.39.54.78,1.07,1.18,1.59.21.29.44.57.67.84.2.25.41.5.61.74.22.25.43.5.65.74,1,1.12,2.05,2.16,3.14,3.11.23.2.45.39.68.57.25.22.5.42.76.62v19.22l-8.34,3.87-16.69-20.43h-36.26l-26.41,26.26c-10.61-24.41-17.59-51.06-17.59-78.93ZM309.74,325.87l25.59-24.8h25.15l25.37,30.68c-9.72,7.68-19,19.07-19,34.54,0,40.02,38.88,78.14,40.88,80.08-2.44-1.93-63.61-50.82-97.99-120.5ZM407.89,446.37c2-1.94,40.88-40.06,40.88-80.08,0-15.47-9.28-26.86-19-34.54l25.37-30.68h25.15l25.59,24.8c-34.38,69.68-95.55,118.57-97.99,120.5ZM484.81,288.11h-36.26l-16.69,20.43-8.34-3.87v-19.22c.26-.2.52-.41.77-.62.23-.19.45-.38.67-.57,1.09-.95,2.14-1.99,3.14-3.11.22-.24.43-.49.65-.74.2-.24.41-.49.62-.74.22-.27.44-.55.66-.84.4-.52.79-1.05,1.18-1.59.2-.28.39-.56.58-.85.19-.29.38-.57.57-.87.19-.29.37-.58.55-.88.19-.3.37-.61.54-.91.16-.27.32-.54.47-.82.28-.5.55-1,.81-1.51.26-.49.5-.98.74-1.49.16-.33.31-.66.46-1,.22-.48.44-.97.64-1.46.27-.63.53-1.28.77-1.94.06-.13.11-.26.15-.39.24-.64.47-1.28.69-1.94.23-.69.45-1.39.66-2.09.03-.09.05-.18.08-.27.21-.71.4-1.43.59-2.15.19-.77.38-1.55.55-2.34l46.04,3.24,42.16-36.16c.36,3.94.55,7.95.55,12.03,0,27.87-6.98,54.52-17.59,78.93l-26.41-26.26Z"/>
  <g>
    <path class="st0" d="M50.17,609.59H18l43.73-115.5h33l43.72,115.5h-32.17l-7.42-20.62h-41.25l-7.43,20.62ZM65.02,567.51h26.4l-13.2-38.77-13.2,38.77Z"/>
    <path class="st0" d="M158.24,494.09h69.3c11.55,0,19.94,2.61,25.16,7.84,5.22,5.23,7.84,13.61,7.84,25.16v16.5c0,11.55-2.61,19.94-7.84,25.16-5.23,5.23-13.61,7.84-25.16,7.84h-39.6v33h-29.7v-115.5ZM230.84,527.09c0-6.6-3.3-9.9-9.9-9.9h-33v36.3h33c6.6,0,9.9-3.3,9.9-9.9v-16.5Z"/>
    <path class="st0" d="M347.99,494.09h69.3c11.55,0,19.94,2.61,25.16,7.84,5.22,5.23,7.84,13.61,7.84,25.16v16.5c0,11.55-2.61,19.94-7.84,25.16-5.23,5.23-13.61,7.84-25.16,7.84h-39.6v33h-29.7v-115.5ZM420.59,527.09c0-6.6-3.3-9.9-9.9-9.9h-33v36.3h33c6.6,0,9.9-3.3,9.9-9.9v-16.5Z"/>
    <path class="st0" d="M568.26,609.59h-91.57v-115.5h91.57v23.1h-61.88v22.28h48.68v23.1h-48.68v23.93h61.88v23.1Z"/>
    <path class="st0" d="M589.55,585.66c30.14,1.65,50.54,2.47,61.22,2.47,2.53,0,4.54-.74,6.02-2.23s2.23-3.49,2.23-6.02v-14.85h-37.95c-11.55,0-19.94-2.61-25.16-7.84-5.23-5.22-7.84-13.61-7.84-25.16v-4.95c0-11.55,2.61-19.94,7.84-25.16s13.61-7.84,25.16-7.84h57.92v23.1h-51.32c-6.6,0-9.9,3.3-9.9,9.9v3.3c0,6.6,3.3,9.9,9.9,9.9h29.7c10.78,0,18.7,2.53,23.76,7.59,5.06,5.06,7.59,12.98,7.59,23.76v8.25c0,10.78-2.53,18.7-7.59,23.76-5.06,5.06-12.98,7.59-23.76,7.59-5.61,0-11.55-.11-17.82-.33l-15.18-.66c-11.22-.55-22.83-1.32-34.82-2.31v-22.27Z"/>
    <path class="st0" d="M762.97,609.59h-29.7v-92.4h-34.65v-23.1h99v23.1h-34.65v92.4Z"/>
  </g>
</svg>